# xmcd
#
# Track frame offsets:
#	150
#	21401
#	43935
#	71636
#	96230
#	120393
#	144887
#	170115
#
# Disc length: 2553 seconds
#
# Revision: 0
# Processed by: cddbd v1.5.2PL0 Copyright (c) Steve Scherf et al.
# Submitted via: EasyCDDAExtractor 16.0.9.1
#
DISCID=7009f708
DTITLE=Giang Hồng Ngọc - Bay Về Thời Gian
DYEAR=2017
DGENRE=Blues
TTITLE0=Phận Tơ Tằm (Minh Kỳ - Hồ Tịnh Tâm)
TTITLE1=Xin Gọi Nhau Là Cố Nhân (Hàn Sinh)
TTITLE2=Chuyến Tàu Hoàng Hôn (Minh Kỳ - Hoài Linh)
TTITLE3=Nghẹn Ngào (Lam Phương)
TTITLE4=Chuyện Tình Không Dĩ Vãng (Tâm Anh)
TTITLE5=Trả Lại Thời Gian (Thanh Sơn)
TTITLE6=Dấu Tình Sầu (Ngô Thụy Miên)
TTITLE7=Vùng Lá Me Bay (Anh Việt Thanh)
EXTD=
EXTT0=
EXTT1=
EXTT2=
EXTT3=
EXTT4=
EXTT5=
EXTT6=
EXTT7=
PLAYORDER=
